<?xml version="1.0" standalone="no"?>
<!DOCTYPE svg PUBLIC "-//W3C//DTD SVG 20010904//EN"
 "http://www.w3.org/TR/2001/REC-SVG-20010904/DTD/svg10.dtd">
<svg version="1.0" xmlns="http://www.w3.org/2000/svg"
 width="512.000000pt" height="512.000000pt" viewBox="0 0 512.000000 512.000000"
 preserveAspectRatio="xMidYMid meet">
<metadata>
Created by potrace 1.11, written by Peter Selinger 2001-2013
</metadata>
<g transform="translate(0.000000,512.000000) scale(0.100000,-0.100000)"
fill="#000000" stroke="none">
<path d="M1579 4856 c-2 -2 -40 -7 -84 -11 -44 -4 -83 -9 -86 -11 -4 -2 -24
-6 -45 -10 -155 -23 -417 -111 -594 -198 -110 -55 -275 -152 -306 -181 -6 -5
-29 -23 -50 -40 -142 -110 -262 -254 -335 -406 -90 -185 -101 -442 -28 -629
62 -157 130 -236 349 -407 159 -123 210 -176 248 -252 24 -49 27 -67 27 -151
-1 -162 -35 -212 -275 -402 -221 -175 -291 -257 -349 -412 -39 -103 -50 -175
-46 -306 3 -128 23 -207 81 -327 68 -142 159 -255 300 -374 264 -221 656 -392
1041 -455 221 -36 523 -24 778 30 796 169 1469 782 1710 1556 26 83 45 152 52
189 2 14 6 29 9 35 7 13 -58 -55 -186 -194 -52 -57 -136 -147 -186 -199 -50
-53 -130 -136 -177 -186 -66 -69 -90 -102 -103 -140 -89 -276 -222 -471 -419
-618 -68 -50 -194 -119 -270 -148 -159 -58 -264 -74 -480 -73 -156 1 -175 3
-324 29 -152 26 -333 85 -408 132 -182 113 -209 379 -55 531 45 45 131 92 168
92 12 0 27 6 33 14 6 7 25 76 41 152 84 386 187 570 406 727 71 51 260 136
304 136 3 0 26 7 52 15 39 11 71 37 180 144 145 141 282 271 341 324 l38 34
-52 18 c-72 26 -150 106 -179 183 -41 109 -14 247 64 326 113 113 275 132 408
48 58 -37 113 -111 129 -173 l12 -47 26 21 c14 11 55 46 91 78 49 43 301 263
329 286 15 13 -163 289 -266 414 -61 75 -232 245 -313 312 -177 147 -429 293
-646 374 -104 39 -274 90 -332 99 -20 3 -53 10 -72 15 -19 5 -61 12 -93 15
-32 4 -68 8 -80 11 -28 6 -372 15 -378 10z m631 -742 c138 -75 200 -225 154
-377 -25 -83 -102 -164 -189 -196 -121 -46 -275 -8 -354 86 -144 173 -76 427
137 509 62 23 188 13 252 -22z m-1116 -309 c65 -31 120 -84 154 -150 35 -69
37 -197 4 -265 -119 -243 -454 -246 -580 -5 -22 43 -26 62 -26 135 0 71 5 93
26 136 45 85 131 154 222 174 55 12 145 1 200 -25z m119 -2044 c67 -32 123
-90 154 -158 56 -121 27 -266 -71 -357 -64 -60 -117 -80 -216 -81 -74 0 -93 4
-142 28 -239 117 -235 450 6 567 54 26 70 29 142 26 59 -2 93 -9 127 -25z"/>
<path d="M4915 4141 c-118 -44 -299 -165 -590 -395 -77 -61 -142 -113 -145
-116 -3 -3 -34 -29 -70 -58 -36 -29 -72 -59 -80 -66 -41 -33 -237 -201 -251
-215 -9 -9 -29 -27 -45 -40 -53 -44 -168 -145 -214 -187 -25 -23 -99 -90 -165
-150 -151 -136 -339 -311 -469 -435 -56 -54 -122 -117 -148 -141 l-46 -43 284
-288 c157 -158 289 -287 292 -287 6 0 49 44 262 270 14 14 65 71 115 126 49
54 113 124 141 154 29 30 89 98 134 150 46 52 99 113 119 135 166 185 424 493
596 711 17 21 45 56 63 78 18 23 39 48 45 56 43 53 165 222 226 314 89 132
141 240 147 301 11 111 -84 170 -201 126z"/>
<path d="M2395 2110 c-172 -45 -306 -135 -392 -262 -34 -51 -89 -179 -109
-254 -15 -58 -62 -264 -69 -304 -2 -13 -18 -52 -34 -85 -36 -72 -75 -101 -165
-122 -73 -16 -106 -45 -106 -94 0 -64 34 -91 155 -126 104 -30 151 -42 180
-47 17 -3 39 -8 50 -10 116 -23 322 -28 440 -10 308 46 535 210 670 482 36 74
89 226 83 241 -7 23 -602 611 -617 610 -9 0 -47 -8 -86 -19z"/>
</g>
</svg>
